<?xml version="1.0" encoding="UTF-8" standalone="no"?>
<!-- Created with Inkscape (http://www.inkscape.org/) -->

<svg
   xmlns:dc="http://purl.org/dc/elements/1.1/"
   xmlns:cc="http://creativecommons.org/ns#"
   xmlns:rdf="http://www.w3.org/1999/02/22-rdf-syntax-ns#"
   xmlns:svg="http://www.w3.org/2000/svg"
   xmlns="http://www.w3.org/2000/svg"
   xmlns:xlink="http://www.w3.org/1999/xlink"
   xmlns:sodipodi="http://sodipodi.sourceforge.net/DTD/sodipodi-0.dtd"
   xmlns:inkscape="http://www.inkscape.org/namespaces/inkscape"
   width="9.3412704in"
   height="4.0238099in"
   viewBox="0 0 840.71434 362.14289"
   id="svg2"
   version="1.1"
   inkscape:version="0.91 r13725"
   sodipodi:docname="imputed-righteousness.svg">
  <defs
     id="defs4">
    <marker
       inkscape:stockid="Arrow2Mstart"
       orient="auto"
       refY="0"
       refX="0"
       id="Arrow2Mstart"
       style="overflow:visible"
       inkscape:isstock="true">
      <path
         id="path4737"
         style="fill:#000000;fill-opacity:1;fill-rule:evenodd;stroke:#000000;stroke-width:0.625;stroke-linejoin:round;stroke-opacity:1"
         d="M 8.7185878,4.0337352 -2.2072895,0.01601326 8.7185884,-4.0017078 c -1.7454984,2.3720609 -1.7354408,5.6174519 -6e-7,8.035443 z"
         transform="scale(0.6,0.6)"
         inkscape:connector-curvature="0" />
    </marker>
    <marker
       inkscape:stockid="Arrow1Mstart"
       orient="auto"
       refY="0"
       refX="0"
       id="Arrow1Mstart"
       style="overflow:visible"
       inkscape:isstock="true">
      <path
         id="path4719"
         d="M 0,0 5,-5 -12.5,0 5,5 0,0 Z"
         style="fill:#000000;fill-opacity:1;fill-rule:evenodd;stroke:#000000;stroke-width:1pt;stroke-opacity:1"
         transform="matrix(0.4,0,0,0.4,4,0)"
         inkscape:connector-curvature="0" />
    </marker>
    <marker
       inkscape:isstock="true"
       style="overflow:visible"
       id="marker7044"
       refX="0"
       refY="0"
       orient="auto"
       inkscape:stockid="Arrow2Mend">
      <path
         transform="scale(-0.6,-0.6)"
         d="M 8.7185878,4.0337352 -2.2072895,0.01601326 8.7185884,-4.0017078 c -1.7454984,2.3720609 -1.7354408,5.6174519 -6e-7,8.035443 z"
         style="fill:#000000;fill-opacity:1;fill-rule:evenodd;stroke:#000000;stroke-width:0.625;stroke-linejoin:round;stroke-opacity:1"
         id="path7046"
         inkscape:connector-curvature="0" />
    </marker>
    <marker
       inkscape:stockid="Arrow2Mend"
       orient="auto"
       refY="0"
       refX="0"
       id="Arrow2Mend"
       style="overflow:visible"
       inkscape:isstock="true"
       inkscape:collect="always">
      <path
         id="path4740"
         style="fill:#000000;fill-opacity:1;fill-rule:evenodd;stroke:#000000;stroke-width:0.625;stroke-linejoin:round;stroke-opacity:1"
         d="M 8.7185878,4.0337352 -2.2072895,0.01601326 8.7185884,-4.0017078 c -1.7454984,2.3720609 -1.7354408,5.6174519 -6e-7,8.035443 z"
         transform="scale(-0.6,-0.6)"
         inkscape:connector-curvature="0" />
    </marker>
    <marker
       inkscape:stockid="Arrow1Send"
       orient="auto"
       refY="0"
       refX="0"
       id="marker5955"
       style="overflow:visible"
       inkscape:isstock="true">
      <path
         id="path5957"
         d="M 0,0 5,-5 -12.5,0 5,5 0,0 Z"
         style="fill:#000000;fill-opacity:1;fill-rule:evenodd;stroke:#000000;stroke-width:1pt;stroke-opacity:1"
         transform="matrix(-0.2,0,0,-0.2,-1.2,0)"
         inkscape:connector-curvature="0" />
    </marker>
    <marker
       inkscape:stockid="TriangleOutM"
       orient="auto"
       refY="0"
       refX="0"
       id="TriangleOutM"
       style="overflow:visible"
       inkscape:isstock="true">
      <path
         id="path4858"
         d="m 5.77,0 -8.65,5 0,-10 8.65,5 z"
         style="fill:#000000;fill-opacity:1;fill-rule:evenodd;stroke:#000000;stroke-width:1pt;stroke-opacity:1"
         transform="scale(0.4,0.4)"
         inkscape:connector-curvature="0" />
    </marker>
    <marker
       inkscape:stockid="Arrow1Send"
       orient="auto"
       refY="0"
       refX="0"
       id="marker5835"
       style="overflow:visible"
       inkscape:isstock="true">
      <path
         id="path5837"
         d="M 0,0 5,-5 -12.5,0 5,5 0,0 Z"
         style="fill:#000000;fill-opacity:1;fill-rule:evenodd;stroke:#000000;stroke-width:1pt;stroke-opacity:1"
         transform="matrix(-0.2,0,0,-0.2,-1.2,0)"
         inkscape:connector-curvature="0" />
    </marker>
    <marker
       inkscape:stockid="Arrow1Mend"
       orient="auto"
       refY="0"
       refX="0"
       id="Arrow1Mend"
       style="overflow:visible"
       inkscape:isstock="true">
      <path
         id="path4722"
         d="M 0,0 5,-5 -12.5,0 5,5 0,0 Z"
         style="fill:#000000;fill-opacity:1;fill-rule:evenodd;stroke:#000000;stroke-width:1pt;stroke-opacity:1"
         transform="matrix(-0.4,0,0,-0.4,-4,0)"
         inkscape:connector-curvature="0" />
    </marker>
    <marker
       inkscape:stockid="Arrow1Send"
       orient="auto"
       refY="0"
       refX="0"
       id="Arrow1Send"
       style="overflow:visible"
       inkscape:isstock="true">
      <path
         id="path4728"
         d="M 0,0 5,-5 -12.5,0 5,5 0,0 Z"
         style="fill:#000000;fill-opacity:1;fill-rule:evenodd;stroke:#000000;stroke-width:1pt;stroke-opacity:1"
         transform="matrix(-0.2,0,0,-0.2,-1.2,0)"
         inkscape:connector-curvature="0" />
    </marker>
    <marker
       inkscape:stockid="TriangleOutL"
       orient="auto"
       refY="0"
       refX="0"
       id="TriangleOutL"
       style="overflow:visible"
       inkscape:isstock="true">
      <path
         id="path4855"
         d="m 5.77,0 -8.65,5 0,-10 8.65,5 z"
         style="fill:#000000;fill-opacity:1;fill-rule:evenodd;stroke:#000000;stroke-width:1pt;stroke-opacity:1"
         transform="scale(0.8,0.8)"
         inkscape:connector-curvature="0" />
    </marker>
    <marker
       inkscape:stockid="Arrow2Lend"
       orient="auto"
       refY="0"
       refX="0"
       id="Arrow2Lend"
       style="overflow:visible"
       inkscape:isstock="true">
      <path
         id="path4734"
         style="fill:#000000;fill-opacity:1;fill-rule:evenodd;stroke:#000000;stroke-width:0.625;stroke-linejoin:round;stroke-opacity:1"
         d="M 8.7185878,4.0337352 -2.2072895,0.01601326 8.7185884,-4.0017078 c -1.7454984,2.3720609 -1.7354408,5.6174519 -6e-7,8.035443 z"
         transform="matrix(-1.1,0,0,-1.1,-1.1,0)"
         inkscape:connector-curvature="0" />
    </marker>
    <marker
       inkscape:stockid="Arrow1Lend"
       orient="auto"
       refY="0"
       refX="0"
       id="marker5217"
       style="overflow:visible"
       inkscape:isstock="true">
      <path
         id="path5219"
         d="M 0,0 5,-5 -12.5,0 5,5 0,0 Z"
         style="fill:#000000;fill-opacity:1;fill-rule:evenodd;stroke:#000000;stroke-width:1pt;stroke-opacity:1"
         transform="matrix(-0.8,0,0,-0.8,-10,0)"
         inkscape:connector-curvature="0" />
    </marker>
    <marker
       inkscape:stockid="Arrow1Lend"
       orient="auto"
       refY="0"
       refX="0"
       id="Arrow1Lend"
       style="overflow:visible"
       inkscape:isstock="true">
      <path
         id="path4716"
         d="M 0,0 5,-5 -12.5,0 5,5 0,0 Z"
         style="fill:#000000;fill-opacity:1;fill-rule:evenodd;stroke:#000000;stroke-width:1pt;stroke-opacity:1"
         transform="matrix(-0.8,0,0,-0.8,-10,0)"
         inkscape:connector-curvature="0" />
    </marker>
    <marker
       inkscape:stockid="Arrow2Mend"
       orient="auto"
       refY="0"
       refX="0"
       id="Arrow2Mend-6"
       style="overflow:visible"
       inkscape:isstock="true">
      <path
         inkscape:connector-curvature="0"
         id="path4740-7"
         style="fill:#000000;fill-opacity:1;fill-rule:evenodd;stroke:#000000;stroke-width:0.625;stroke-linejoin:round;stroke-opacity:1"
         d="M 8.7185878,4.0337352 -2.2072895,0.01601326 8.7185884,-4.0017078 c -1.7454984,2.3720609 -1.7354408,5.6174519 -6e-7,8.035443 z"
         transform="scale(-0.6,-0.6)" />
    </marker>
  </defs>
  <sodipodi:namedview
     id="base"
     pagecolor="#ffffff"
     bordercolor="#666666"
     borderopacity="1.0"
     inkscape:pageopacity="0.0"
     inkscape:pageshadow="2"
     inkscape:zoom="0.98994949"
     inkscape:cx="420.48251"
     inkscape:cy="188.75268"
     inkscape:document-units="px"
     inkscape:current-layer="layer1"
     showgrid="false"
     units="in"
     inkscape:window-width="1920"
     inkscape:window-height="1009"
     inkscape:window-x="0"
     inkscape:window-y="34"
     inkscape:window-maximized="1"
     fit-margin-top="0"
     fit-margin-left="0"
     fit-margin-right="0"
     fit-margin-bottom="0" />
  <metadata
     id="metadata7">
    <rdf:RDF>
      <cc:Work
         rdf:about="">
        <dc:format>image/svg+xml</dc:format>
        <dc:type
           rdf:resource="http://purl.org/dc/dcmitype/StillImage" />
        <dc:title></dc:title>
      </cc:Work>
    </rdf:RDF>
  </metadata>
  <g
     inkscape:label="Layer 1"
     inkscape:groupmode="layer"
     id="layer1"
     transform="translate(-70,-504.50504)">
    <path
       style="fill:none;fill-rule:evenodd;stroke:#000000;stroke-width:5;stroke-linecap:round;stroke-linejoin:miter;stroke-miterlimit:4;stroke-dasharray:none;stroke-opacity:1;marker-end:url(#Arrow2Mend)"
       d="m 281.78571,602.50506 c 160.86912,-61.68274 292.11857,-44.37967 413.21429,0"
       id="path4707"
       inkscape:connector-curvature="0"
       sodipodi:nodetypes="cc" />
    <text
       xml:space="preserve"
       style="font-style:normal;font-variant:normal;font-weight:bold;font-stretch:normal;font-size:35px;line-height:125%;font-family:Sans;-inkscape-font-specification:'Sans Bold';letter-spacing:0px;word-spacing:0px;fill:#000000;fill-opacity:1;stroke:none;stroke-width:1px;stroke-linecap:butt;stroke-linejoin:miter;stroke-opacity:1"
       id="text6850"
       sodipodi:linespacing="125%"
       transform="translate(0,-14)"><textPath
         xlink:href="#path7042"
         startOffset="50%"
         id="textPath7401"><tspan
   style="text-align:center;text-anchor:middle"
   id="tspan6852">My Sins</tspan></textPath></text>
    <text
       xml:space="preserve"
       style="font-style:normal;font-variant:normal;font-weight:bold;font-stretch:normal;font-size:35px;line-height:125%;font-family:Sans;-inkscape-font-specification:'Sans Bold';text-align:center;letter-spacing:0px;word-spacing:0px;text-anchor:middle;fill:#000000;fill-opacity:1;stroke:none;stroke-width:1px;stroke-linecap:butt;stroke-linejoin:miter;stroke-opacity:1"
       id="text6850-8"
       sodipodi:linespacing="125%"
       y="-2"
       transform="translate(0,-14)"><textPath
         xlink:href="#path4707"
         startOffset="50%"
         id="textPath6884"><tspan
   id="tspan6852-7">His Righteousness</tspan></textPath></text>
    <g
       transform="matrix(0.39926199,0,0,0.39926199,26.473672,472.87716)"
       id="layer1-6">
      <path
         d="m 323.75,123.03 0,114.66 -210.27303,0 0,56.062 61.27603,0 11.625,9.5938 22.719,21.719 9.5938,5.0312 8.0938,4.5625 c 4.0668,2.2925 8.6293,3.6484 12.625,6.0625 8.4433,5.1012 23.75,17.656 23.75,17.656 l 19.188,7.0938 10.094,4.5312 2.0312,5.5625 9.5938,29.281 6.5625,34.344 3.5312,14.656 -7.5625,27.781 -6.6,13.13 -4.0312,17.688 0.5,15.156 4.0625,24.25 14.125,69.688 2.5312,19.688 c 0,0 0.5,12.631 0.5,15.156 0,2.5254 -0.5,17.183 -0.5,20.719 0,3.5355 4.0312,20.719 4.0312,20.719 l 4.0625,22.719 -1.0312,57.062 -9.5938,0 0,49 4.5625,10.594 6.0625,0 1,47.5 55.062,0.5 -1.0312,-48 2.08456,0 6.0938,-7.9509 -1.0625,-51.643 -3.05326,0 -0.53125,-44.938 7.5938,-36.375 -1,-29.281 -2.5312,-19.719 1,-18.688 10.09,-35.84 1.5312,-39.406 0.5,-21.719 -4.03,-29.28 -4.0625,-18.188 0,-22.219 7.5938,-34.344 4.5312,-33.344 4.5625,-19.688 4.5312,-11.125 27.281,-10.094 25.75,-19.188 17.688,-6.5938 27.281,-18.156 16.156,-15.656 78.96303,0 0,-56.062 -224.93303,0 0,-114.66 -58.594,0 z m 162.63,170.72 -22.72,15.13 -20.19,10.12 -17.188,8.0625 c 0,0 -5.0582,5.0625 -8.5938,5.0625 -3.5355,0 -16.156,0.5 -16.156,0.5 l -6.5625,1.5312 -10.594,7.0625 -3.0312,-1 -1.5312,-46.469 106.56,0 z m -169.69,0 -3.0312,10.594 -1,10.094 -5.5625,11.625 -0.5,13.625 -13.156,-5.0312 -16.156,-3.5312 -18.688,-7.5938 -17.156,-6.0625 -9.5938,-5.5625 -10.625,-12.625 -8.5938,-5.5312 104.06,0 z"
         id="path2830"
         inkscape:connector-curvature="0"
         sodipodi:nodetypes="ccccccccssccccccccccccccssccccccccccccccccccccccccccccccccccccccccccccsccccccccccccccccccccc" />
      <g
         transform="matrix(-2.2124763,0,0,2.2124763,2356.7201,88.758697)"
         inkscape:label="Layer 1"
         id="layer1-8">
        <path
           d="m 217.48,363.16 c -0.33,-0.06 -2.17,-0.32 -4.08,-0.58 -3.11,-0.43 -3.7,-0.59 -5.5,-1.48 -1.11,-0.56 -3.11,-1.81 -4.44,-2.78 -3.06,-2.24 -3.03,-2.23 -6.65,-3.26 -3.66,-1.05 -5.4,-1.82 -6.35,-2.8 -0.67,-0.71 -0.71,-0.87 -0.79,-3.11 -0.09,-2.53 0.3,-4.47 1.18,-5.91 0.26,-0.41 0.46,-0.82 0.46,-0.9 0,-0.08 -0.44,-0.22 -0.97,-0.31 -1.47,-0.23 -1.63,-0.5 -1.38,-2.29 0.28,-1.93 0.06,-4.41 -0.58,-6.54 -0.48,-1.59 -0.49,-1.99 -0.34,-9.84 0.12,-5.9 0.06,-10.56 -0.21,-16.7 -0.36,-8.28 -0.56,-40.3 -0.25,-40.8 0.08,-0.11 0.02,-4.78 -0.12,-10.37 -0.2,-7.81 -0.4,-11.4 -0.85,-15.47 -0.32,-2.91 -0.65,-5.87 -0.71,-6.57 -0.07,-0.7 -0.61,-3.23 -1.2,-5.62 -0.59,-2.39 -1.07,-4.53 -1.07,-4.76 0,-0.22 -0.1,-0.46 -0.22,-0.54 -0.12,-0.07 -0.16,0.26 -0.1,0.77 0.07,0.5 -0.11,2.14 -0.39,3.66 -1.04,5.65 -1.22,6.64 -1.45,8.16 -0.13,0.86 -0.33,2.16 -0.46,2.88 -0.3,1.79 -2.54,10.49 -4.74,18.37 -1,3.56 -1.97,7.07 -2.16,7.8 -0.19,0.73 -1.52,5.64 -2.95,10.92 -3.56,13.09 -3.86,14.24 -4.09,15.48 -1.31,7.31 -1.98,11.75 -2.3,15.19 -0.21,2.28 -0.53,5.49 -0.7,7.14 -0.17,1.65 -0.32,5.92 -0.33,9.48 -0.02,3.57 -0.1,9.51 -0.19,13.2 -0.14,6.16 -0.19,6.75 -0.6,7.04 -0.39,0.28 -0.44,0.67 -0.44,3.56 0,1.98 -0.11,3.44 -0.28,3.76 -0.15,0.29 -0.72,0.96 -1.27,1.49 -0.54,0.52 -1.78,1.84 -2.74,2.92 l -1.75,1.97 -1.26,-0.05 c -1.24,-0.04 -1.31,-0.01 -2.78,1.35 -2.35,2.18 -4.66,3.7 -6.08,4 -1.39,0.3 -4.46,0.16 -8.21,-0.36 -1.32,-0.18 -3.02,-0.39 -3.77,-0.45 -2.21,-0.2 -2.9,-0.6 -3.54,-2.08 -0.43,-1.01 -0.52,-1.56 -0.42,-2.54 0.16,-1.5 0.56,-2.29 2.33,-4.5 0.72,-0.91 1.81,-2.28 2.4,-3.03 0.59,-0.75 1.98,-2.44 3.08,-3.74 1.95,-2.31 3.55,-4.93 3.29,-5.37 -0.08,-0.12 -0.73,-0.35 -1.46,-0.51 -0.73,-0.16 -1.37,-0.36 -1.41,-0.44 -0.04,-0.07 0.07,-1.49 0.24,-3.14 0.41,-3.86 0.5,-22.71 0.15,-28.92 -0.15,-2.51 -0.34,-8.45 -0.42,-13.21 -0.16,-9.07 -0.19,-8.48 1.09,-21.12 1.04,-10.14 1.32,-14.77 1.55,-25.2 0.14,-6.02 0.49,-14.48 0.74,-17.58 l 0.12,-1.5 -0.79,-0.33 c -0.43,-0.18 -1.69,-1.02 -2.79,-1.86 -2.36,-1.81 -3.23,-3.25 -3.65,-6.03 -0.29,-1.93 -0.34,-7.73 -0.09,-11.14 l 0.16,-2.18 -0.98,-0.16 c -0.54,-0.09 -1.36,-0.34 -1.83,-0.56 l -0.84,-0.4 0,-12.74 c 0,-7.01 -0.07,-19.11 -0.15,-26.9 -0.15,-13.71 0.08,-26.68 0.63,-34.81 0.12,-1.85 0.29,-4.71 0.36,-6.36 0.28,-6.26 0.65,-10.83 1.22,-15.24 0.33,-2.51 0.81,-6.29 1.07,-8.4 0.73,-5.97 1.16,-8.746 1.43,-9.248 0.48,-0.888 3.83,-2.864 13.44,-7.914 7.35,-3.858 9.45,-5.049 13.93,-7.877 6.3,-3.982 6.88,-4.367 7.26,-4.801 0.2,-0.231 0.49,-1.443 0.67,-2.762 0.26,-1.946 0.26,-2.505 0,-3.241 -0.45,-1.251 -1.17,-2.209 -1.67,-2.209 -0.24,0 -0.94,-0.664 -1.59,-1.501 -0.95,-1.222 -1.29,-1.945 -1.85,-3.9 -0.9,-3.156 -1.15,-6.549 -0.55,-7.46 0.49,-0.747 0.51,-1.016 0.82,-7.663 0.3,-6.497 0.68,-7.889 3,-10.733 1.24,-1.521 3.73,-3.489 4.67,-3.69 0.35,-0.074 1.66,-0.518 2.92,-0.987 l 2.28,-0.852 3.96,0.139 c 7.14,0.25 9.46,1.141 13.46,5.187 3.32,3.35 3.92,4.508 3.94,7.564 0,1.194 -0.14,3.634 -0.32,5.422 -0.32,3.216 -0.31,3.26 0.22,4.16 0.51,0.867 0.53,1.064 0.37,4.31 -0.27,5.343 -1.13,8.323 -2.43,8.323 -0.64,0 -0.88,0.59 -1.29,3.121 -0.47,2.946 -0.58,5.645 -0.28,6.562 0.31,0.935 2.04,2.633 4.93,4.839 1.54,1.172 2.44,1.564 10.69,4.646 4.95,1.851 11.1,4.325 13.67,5.497 3.94,1.795 4.75,2.251 5.13,2.892 0.57,0.985 3.67,11.766 3.87,13.496 0.15,1.3 0.63,4.76 1.1,8.04 0.13,0.92 0.29,2.11 0.36,2.64 0.06,0.53 0.28,2.09 0.47,3.48 0.2,1.38 0.47,3.28 0.6,4.2 0.65,4.57 1.35,18.76 1.8,36.13 0.2,7.72 0.48,17.82 0.61,22.44 0.13,4.62 0.31,12.42 0.39,17.34 l 0.16,8.93 -0.7,0.27 c -0.38,0.15 -1.33,0.23 -2.09,0.17 -1.1,-0.07 -1.44,-0.01 -1.59,0.28 -0.11,0.21 -0.26,1.6 -0.35,3.09 -0.11,1.83 -0.32,3.12 -0.64,3.96 -0.27,0.69 -0.69,2.33 -0.94,3.65 -0.83,4.4 -0.9,4.58 -2.91,7.06 -2.53,3.13 -3.25,3.78 -6.58,5.9 -1.59,1.01 -2.97,1.92 -3.07,2.02 -0.1,0.1 -0.05,3.23 0.1,6.95 0.36,8.31 -0.05,30.68 -0.64,35.28 -0.2,1.54 -0.53,4.1 -0.73,5.68 -0.57,4.42 -1.01,7.43 -1.54,10.32 -0.26,1.46 -0.64,3.67 -0.84,4.93 -0.2,1.25 -0.53,3.14 -0.72,4.2 -0.2,1.05 -0.46,2.89 -0.59,4.08 -0.25,2.36 -0.79,6.84 -1.35,11.16 -0.41,3.22 -0.78,10.05 -1.02,18.82 l -0.16,6.21 -1.14,0.34 c -1.26,0.36 -1.26,0.36 -0.87,1.11 1.24,2.33 5.93,6.45 12.2,10.74 3.32,2.27 5.43,3.94 6.09,4.84 0.29,0.39 0.52,1.17 0.59,1.97 0.1,1.25 0.06,1.38 -0.65,2.04 -0.91,0.85 -4.09,2.1 -6.24,2.45 -1.77,0.28 -5.82,0.47 -6.74,0.3 z"
           style="fill:#000000"
           id="path2393"
           inkscape:connector-curvature="0" />
      </g>
    </g>
    <path
       sodipodi:nodetypes="cc"
       inkscape:connector-curvature="0"
       id="path7042"
       d="m 281.82011,757.35147 c 160.86912,61.68274 292.11857,44.37967 413.21429,0"
       style="fill:none;fill-rule:evenodd;stroke:#000000;stroke-width:5;stroke-linecap:round;stroke-linejoin:miter;stroke-miterlimit:4;stroke-dasharray:none;stroke-opacity:1;marker-start:url(#Arrow2Mstart)" />
  </g>
</svg>
